<mxfile host="app.diagrams.net" modified="2020-10-30T10:58:09.129Z" agent="5.0 (Windows NT 10.0; Win64; x64) AppleWebKit/537.36 (KHTML, like Gecko) Chrome/86.0.4240.111 Safari/537.36" etag="ea-lciNWxs6yziWNUthn" version="13.8.1" type="github" pages="4">
  <diagram id="IE4HnxcmneUBCg73D6RD" name="Page-1">
    <mxGraphModel dx="1420" dy="834" grid="0" gridSize="10" guides="1" tooltips="1" connect="1" arrows="1" fold="1" page="0" pageScale="1" pageWidth="827" pageHeight="1169" math="0" shadow="0">
      <root>
        <mxCell id="0" />
        <mxCell id="1" parent="0" />
        <mxCell id="bMnIRGE8KExdXlGAU3jA-1" value="开发者" style="shape=umlActor;verticalLabelPosition=bottom;verticalAlign=top;html=1;outlineConnect=0;" parent="1" vertex="1">
          <mxGeometry x="122" y="51" width="30" height="60" as="geometry" />
        </mxCell>
        <mxCell id="bMnIRGE8KExdXlGAU3jA-12" style="edgeStyle=orthogonalEdgeStyle;rounded=0;orthogonalLoop=1;jettySize=auto;html=1;exitX=0.5;exitY=1;exitDx=0;exitDy=0;entryX=0.5;entryY=0;entryDx=0;entryDy=0;" parent="1" source="bMnIRGE8KExdXlGAU3jA-6" target="bMnIRGE8KExdXlGAU3jA-3" edge="1">
          <mxGeometry relative="1" as="geometry" />
        </mxCell>
        <mxCell id="bMnIRGE8KExdXlGAU3jA-7" value="审核者" style="shape=umlActor;verticalLabelPosition=bottom;verticalAlign=top;html=1;outlineConnect=0;" parent="1" vertex="1">
          <mxGeometry x="120" y="204" width="30" height="60" as="geometry" />
        </mxCell>
        <mxCell id="bMnIRGE8KExdXlGAU3jA-10" value="" style="endArrow=none;html=1;" parent="1" edge="1">
          <mxGeometry width="50" height="50" relative="1" as="geometry">
            <mxPoint x="169.99968630895546" y="161.84158540075657" as="sourcePoint" />
            <mxPoint x="718" y="160" as="targetPoint" />
          </mxGeometry>
        </mxCell>
        <mxCell id="bMnIRGE8KExdXlGAU3jA-3" value="等待Review" style="ellipse;whiteSpace=wrap;html=1;aspect=fixed;" parent="1" vertex="1">
          <mxGeometry x="202" y="124" width="80" height="80" as="geometry" />
        </mxCell>
        <mxCell id="bMnIRGE8KExdXlGAU3jA-13" value="" style="endArrow=none;html=1;dashed=1;strokeColor=#CCCCCC;" parent="1" edge="1">
          <mxGeometry width="50" height="50" relative="1" as="geometry">
            <mxPoint x="165.99968630895546" y="77.92158540075657" as="sourcePoint" />
            <mxPoint x="631" y="76.08" as="targetPoint" />
          </mxGeometry>
        </mxCell>
        <mxCell id="bMnIRGE8KExdXlGAU3jA-6" value="推送提交" style="text;html=1;strokeColor=none;fillColor=none;align=center;verticalAlign=middle;whiteSpace=wrap;rounded=0;" parent="1" vertex="1">
          <mxGeometry x="217" y="67" width="50" height="20" as="geometry" />
        </mxCell>
        <mxCell id="bMnIRGE8KExdXlGAU3jA-14" value="" style="endArrow=none;html=1;dashed=1;strokeColor=#CCCCCC;" parent="1" source="bMnIRGE8KExdXlGAU3jA-15" edge="1">
          <mxGeometry width="50" height="50" relative="1" as="geometry">
            <mxPoint x="162.99968630895546" y="241.8415854007566" as="sourcePoint" />
            <mxPoint x="728" y="240" as="targetPoint" />
          </mxGeometry>
        </mxCell>
        <mxCell id="bMnIRGE8KExdXlGAU3jA-18" style="edgeStyle=orthogonalEdgeStyle;rounded=0;orthogonalLoop=1;jettySize=auto;html=1;exitX=0.5;exitY=0;exitDx=0;exitDy=0;entryX=0.5;entryY=1;entryDx=0;entryDy=0;" parent="1" source="bMnIRGE8KExdXlGAU3jA-15" target="bMnIRGE8KExdXlGAU3jA-17" edge="1">
          <mxGeometry relative="1" as="geometry" />
        </mxCell>
        <mxCell id="bMnIRGE8KExdXlGAU3jA-15" value="否决 -2" style="text;html=1;strokeColor=none;fillColor=none;align=center;verticalAlign=middle;whiteSpace=wrap;rounded=0;" parent="1" vertex="1">
          <mxGeometry x="321" y="234" width="50" height="20" as="geometry" />
        </mxCell>
        <mxCell id="bMnIRGE8KExdXlGAU3jA-16" value="" style="endArrow=none;html=1;dashed=1;strokeColor=#CCCCCC;" parent="1" target="bMnIRGE8KExdXlGAU3jA-15" edge="1">
          <mxGeometry width="50" height="50" relative="1" as="geometry">
            <mxPoint x="162.99968630895546" y="241.84158540075657" as="sourcePoint" />
            <mxPoint x="628" y="240" as="targetPoint" />
          </mxGeometry>
        </mxCell>
        <mxCell id="bMnIRGE8KExdXlGAU3jA-17" value="不推荐" style="ellipse;whiteSpace=wrap;html=1;aspect=fixed;" parent="1" vertex="1">
          <mxGeometry x="306" y="124" width="80" height="80" as="geometry" />
        </mxCell>
        <mxCell id="bMnIRGE8KExdXlGAU3jA-19" value="已更新" style="ellipse;whiteSpace=wrap;html=1;aspect=fixed;" parent="1" vertex="1">
          <mxGeometry x="406" y="121" width="80" height="80" as="geometry" />
        </mxCell>
        <mxCell id="bMnIRGE8KExdXlGAU3jA-24" style="edgeStyle=orthogonalEdgeStyle;rounded=0;orthogonalLoop=1;jettySize=auto;html=1;exitX=0.5;exitY=1;exitDx=0;exitDy=0;entryX=0.5;entryY=0;entryDx=0;entryDy=0;strokeColor=#000000;" parent="1" source="bMnIRGE8KExdXlGAU3jA-23" target="bMnIRGE8KExdXlGAU3jA-19" edge="1">
          <mxGeometry relative="1" as="geometry" />
        </mxCell>
        <mxCell id="bMnIRGE8KExdXlGAU3jA-23" value="修改重新提交" style="text;html=1;strokeColor=none;fillColor=none;align=center;verticalAlign=middle;whiteSpace=wrap;rounded=0;" parent="1" vertex="1">
          <mxGeometry x="399" y="68" width="92" height="15" as="geometry" />
        </mxCell>
        <mxCell id="bMnIRGE8KExdXlGAU3jA-25" value="可以提交" style="ellipse;whiteSpace=wrap;html=1;aspect=fixed;" parent="1" vertex="1">
          <mxGeometry x="500" y="121" width="80" height="80" as="geometry" />
        </mxCell>
        <mxCell id="bMnIRGE8KExdXlGAU3jA-27" style="edgeStyle=orthogonalEdgeStyle;rounded=0;orthogonalLoop=1;jettySize=auto;html=1;exitX=0.5;exitY=0;exitDx=0;exitDy=0;strokeColor=#000000;" parent="1" source="bMnIRGE8KExdXlGAU3jA-26" target="bMnIRGE8KExdXlGAU3jA-25" edge="1">
          <mxGeometry relative="1" as="geometry" />
        </mxCell>
        <mxCell id="bMnIRGE8KExdXlGAU3jA-26" value="通过 +2" style="text;html=1;strokeColor=none;fillColor=none;align=center;verticalAlign=middle;whiteSpace=wrap;rounded=0;" parent="1" vertex="1">
          <mxGeometry x="515" y="233" width="50" height="20" as="geometry" />
        </mxCell>
        <mxCell id="bMnIRGE8KExdXlGAU3jA-28" value="已合并" style="ellipse;whiteSpace=wrap;html=1;aspect=fixed;" parent="1" vertex="1">
          <mxGeometry x="602" y="121" width="80" height="80" as="geometry" />
        </mxCell>
        <mxCell id="bMnIRGE8KExdXlGAU3jA-30" style="edgeStyle=orthogonalEdgeStyle;rounded=0;orthogonalLoop=1;jettySize=auto;html=1;exitX=0.5;exitY=0;exitDx=0;exitDy=0;strokeColor=#000000;" parent="1" source="bMnIRGE8KExdXlGAU3jA-29" edge="1">
          <mxGeometry relative="1" as="geometry">
            <mxPoint x="646" y="204" as="targetPoint" />
          </mxGeometry>
        </mxCell>
        <mxCell id="bMnIRGE8KExdXlGAU3jA-29" value="submit" style="text;html=1;strokeColor=none;fillColor=none;align=center;verticalAlign=middle;whiteSpace=wrap;rounded=0;" parent="1" vertex="1">
          <mxGeometry x="621" y="231" width="50" height="20" as="geometry" />
        </mxCell>
      </root>
    </mxGraphModel>
  </diagram>
  <diagram id="1LwYLVAUWSjhx5Y4rSy4" name="Page-2">
    <mxGraphModel dx="1820" dy="834" grid="0" gridSize="10" guides="1" tooltips="1" connect="1" arrows="1" fold="1" page="0" pageScale="1" pageWidth="827" pageHeight="1169" math="0" shadow="0">
      <root>
        <mxCell id="dQjhAg_eCclRDCOwWY1V-0" />
        <mxCell id="dQjhAg_eCclRDCOwWY1V-1" parent="dQjhAg_eCclRDCOwWY1V-0" />
        <mxCell id="dQjhAg_eCclRDCOwWY1V-2" value="" style="ellipse;whiteSpace=wrap;html=1;aspect=fixed;fillColor=#dae8fc;strokeColor=#6c8ebf;" vertex="1" parent="dQjhAg_eCclRDCOwWY1V-1">
          <mxGeometry x="-19" y="307" width="55" height="55" as="geometry" />
        </mxCell>
        <mxCell id="dQjhAg_eCclRDCOwWY1V-8" style="edgeStyle=orthogonalEdgeStyle;curved=1;rounded=0;orthogonalLoop=1;jettySize=auto;html=1;exitX=0.5;exitY=0;exitDx=0;exitDy=0;entryX=0.5;entryY=1;entryDx=0;entryDy=0;strokeColor=#1A1A1A;strokeWidth=2;" edge="1" parent="dQjhAg_eCclRDCOwWY1V-1" source="dQjhAg_eCclRDCOwWY1V-4" target="dQjhAg_eCclRDCOwWY1V-2">
          <mxGeometry relative="1" as="geometry" />
        </mxCell>
        <mxCell id="dQjhAg_eCclRDCOwWY1V-4" value="" style="ellipse;whiteSpace=wrap;html=1;aspect=fixed;fillColor=#dae8fc;strokeColor=#6c8ebf;" vertex="1" parent="dQjhAg_eCclRDCOwWY1V-1">
          <mxGeometry x="-19" y="398" width="55" height="55" as="geometry" />
        </mxCell>
        <mxCell id="dQjhAg_eCclRDCOwWY1V-6" style="edgeStyle=orthogonalEdgeStyle;rounded=0;orthogonalLoop=1;jettySize=auto;html=1;exitX=0.5;exitY=0;exitDx=0;exitDy=0;entryX=0.5;entryY=1;entryDx=0;entryDy=0;strokeWidth=2;curved=1;strokeColor=#1A1A1A;" edge="1" parent="dQjhAg_eCclRDCOwWY1V-1" source="dQjhAg_eCclRDCOwWY1V-5" target="dQjhAg_eCclRDCOwWY1V-4">
          <mxGeometry relative="1" as="geometry" />
        </mxCell>
        <mxCell id="dQjhAg_eCclRDCOwWY1V-5" value="" style="ellipse;whiteSpace=wrap;html=1;aspect=fixed;fillColor=#dae8fc;strokeColor=#6c8ebf;" vertex="1" parent="dQjhAg_eCclRDCOwWY1V-1">
          <mxGeometry x="-19" y="489" width="55" height="55" as="geometry" />
        </mxCell>
        <mxCell id="dQjhAg_eCclRDCOwWY1V-10" style="edgeStyle=orthogonalEdgeStyle;curved=1;rounded=0;orthogonalLoop=1;jettySize=auto;html=1;exitX=0.5;exitY=0;exitDx=0;exitDy=0;strokeColor=#1A1A1A;strokeWidth=2;" edge="1" parent="dQjhAg_eCclRDCOwWY1V-1" source="dQjhAg_eCclRDCOwWY1V-9" target="dQjhAg_eCclRDCOwWY1V-5">
          <mxGeometry relative="1" as="geometry" />
        </mxCell>
        <mxCell id="dQjhAg_eCclRDCOwWY1V-9" value="" style="ellipse;whiteSpace=wrap;html=1;aspect=fixed;fillColor=#f8cecc;strokeColor=#b85450;" vertex="1" parent="dQjhAg_eCclRDCOwWY1V-1">
          <mxGeometry x="-19" y="570" width="55" height="55" as="geometry" />
        </mxCell>
        <mxCell id="dQjhAg_eCclRDCOwWY1V-11" value="" style="shape=curlyBracket;whiteSpace=wrap;html=1;rounded=1;" vertex="1" parent="dQjhAg_eCclRDCOwWY1V-1">
          <mxGeometry x="-61" y="320" width="27" height="215" as="geometry" />
        </mxCell>
        <mxCell id="dQjhAg_eCclRDCOwWY1V-12" value="待 push commit" style="text;html=1;strokeColor=none;fillColor=none;align=center;verticalAlign=middle;whiteSpace=wrap;rounded=0;" vertex="1" parent="dQjhAg_eCclRDCOwWY1V-1">
          <mxGeometry x="-160" y="415.5" width="92" height="20" as="geometry" />
        </mxCell>
        <mxCell id="dQjhAg_eCclRDCOwWY1V-13" value="origin/master" style="text;html=1;strokeColor=none;fillColor=none;align=center;verticalAlign=middle;whiteSpace=wrap;rounded=0;fontColor=#FF6666;" vertex="1" parent="dQjhAg_eCclRDCOwWY1V-1">
          <mxGeometry x="-119" y="587.5" width="92" height="20" as="geometry" />
        </mxCell>
        <mxCell id="dQjhAg_eCclRDCOwWY1V-14" value="master" style="text;html=1;strokeColor=none;fillColor=none;align=center;verticalAlign=middle;whiteSpace=wrap;rounded=0;fontColor=#FF6666;" vertex="1" parent="dQjhAg_eCclRDCOwWY1V-1">
          <mxGeometry x="-146" y="320" width="92" height="20" as="geometry" />
        </mxCell>
        <mxCell id="dQjhAg_eCclRDCOwWY1V-15" value="" style="shape=singleArrow;whiteSpace=wrap;html=1;fontColor=#FF6666;" vertex="1" parent="dQjhAg_eCclRDCOwWY1V-1">
          <mxGeometry x="139" y="429" width="100" height="60" as="geometry" />
        </mxCell>
        <mxCell id="dQjhAg_eCclRDCOwWY1V-16" value="git push origin HEAD:refs/for/master" style="text;html=1;strokeColor=none;fillColor=none;align=center;verticalAlign=middle;whiteSpace=wrap;rounded=0;" vertex="1" parent="dQjhAg_eCclRDCOwWY1V-1">
          <mxGeometry x="98" y="405" width="222" height="20" as="geometry" />
        </mxCell>
        <mxCell id="dQjhAg_eCclRDCOwWY1V-17" value="" style="ellipse;whiteSpace=wrap;html=1;aspect=fixed;fillColor=#dae8fc;strokeColor=#6c8ebf;" vertex="1" parent="dQjhAg_eCclRDCOwWY1V-1">
          <mxGeometry x="462" y="295" width="55" height="55" as="geometry" />
        </mxCell>
        <mxCell id="dQjhAg_eCclRDCOwWY1V-18" style="edgeStyle=orthogonalEdgeStyle;curved=1;rounded=0;orthogonalLoop=1;jettySize=auto;html=1;exitX=0.5;exitY=0;exitDx=0;exitDy=0;entryX=0.5;entryY=1;entryDx=0;entryDy=0;strokeWidth=2;dashed=1;dashPattern=1 1;strokeColor=#999999;" edge="1" parent="dQjhAg_eCclRDCOwWY1V-1" source="dQjhAg_eCclRDCOwWY1V-19" target="dQjhAg_eCclRDCOwWY1V-17">
          <mxGeometry relative="1" as="geometry" />
        </mxCell>
        <mxCell id="dQjhAg_eCclRDCOwWY1V-19" value="" style="ellipse;whiteSpace=wrap;html=1;aspect=fixed;fillColor=#dae8fc;strokeColor=#6c8ebf;" vertex="1" parent="dQjhAg_eCclRDCOwWY1V-1">
          <mxGeometry x="462" y="386" width="55" height="55" as="geometry" />
        </mxCell>
        <mxCell id="dQjhAg_eCclRDCOwWY1V-20" style="edgeStyle=orthogonalEdgeStyle;rounded=0;orthogonalLoop=1;jettySize=auto;html=1;exitX=0.5;exitY=0;exitDx=0;exitDy=0;entryX=0.5;entryY=1;entryDx=0;entryDy=0;strokeWidth=2;curved=1;dashed=1;dashPattern=1 1;strokeColor=#999999;" edge="1" parent="dQjhAg_eCclRDCOwWY1V-1" source="dQjhAg_eCclRDCOwWY1V-21" target="dQjhAg_eCclRDCOwWY1V-19">
          <mxGeometry relative="1" as="geometry" />
        </mxCell>
        <mxCell id="dQjhAg_eCclRDCOwWY1V-21" value="" style="ellipse;whiteSpace=wrap;html=1;aspect=fixed;fillColor=#dae8fc;strokeColor=#6c8ebf;" vertex="1" parent="dQjhAg_eCclRDCOwWY1V-1">
          <mxGeometry x="462" y="477" width="55" height="55" as="geometry" />
        </mxCell>
        <mxCell id="5hZMFdon1R3yh-kyLU4t-0" style="edgeStyle=orthogonalEdgeStyle;curved=1;rounded=0;orthogonalLoop=1;jettySize=auto;html=1;exitX=0.5;exitY=0;exitDx=0;exitDy=0;entryX=0.5;entryY=1;entryDx=0;entryDy=0;strokeWidth=2;fontColor=#FF6666;dashed=1;dashPattern=1 1;strokeColor=#999999;" edge="1" parent="dQjhAg_eCclRDCOwWY1V-1" source="dQjhAg_eCclRDCOwWY1V-23" target="dQjhAg_eCclRDCOwWY1V-21">
          <mxGeometry relative="1" as="geometry" />
        </mxCell>
        <mxCell id="dQjhAg_eCclRDCOwWY1V-23" value="" style="ellipse;whiteSpace=wrap;html=1;aspect=fixed;fillColor=#f8cecc;strokeColor=#b85450;" vertex="1" parent="dQjhAg_eCclRDCOwWY1V-1">
          <mxGeometry x="340" y="570" width="55" height="55" as="geometry" />
        </mxCell>
        <mxCell id="dQjhAg_eCclRDCOwWY1V-31" value="refs/change/01/0001/1" style="text;html=1;strokeColor=none;fillColor=none;align=center;verticalAlign=middle;whiteSpace=wrap;rounded=0;fontColor=#FF6666;" vertex="1" parent="dQjhAg_eCclRDCOwWY1V-1">
          <mxGeometry x="523" y="495" width="152" height="19" as="geometry" />
        </mxCell>
        <mxCell id="dQjhAg_eCclRDCOwWY1V-32" value="refs/change/02/0002/1" style="text;html=1;strokeColor=none;fillColor=none;align=center;verticalAlign=middle;whiteSpace=wrap;rounded=0;fontColor=#FF6666;" vertex="1" parent="dQjhAg_eCclRDCOwWY1V-1">
          <mxGeometry x="523" y="405" width="152" height="19" as="geometry" />
        </mxCell>
        <mxCell id="dQjhAg_eCclRDCOwWY1V-33" value="refs/change/03/0003/1" style="text;html=1;strokeColor=none;fillColor=none;align=center;verticalAlign=middle;whiteSpace=wrap;rounded=0;fontColor=#FF6666;" vertex="1" parent="dQjhAg_eCclRDCOwWY1V-1">
          <mxGeometry x="529" y="314" width="152" height="19" as="geometry" />
        </mxCell>
        <mxCell id="dQjhAg_eCclRDCOwWY1V-35" value="origin/master" style="text;html=1;strokeColor=none;fillColor=none;align=center;verticalAlign=middle;whiteSpace=wrap;rounded=0;fontColor=#FF6666;" vertex="1" parent="dQjhAg_eCclRDCOwWY1V-1">
          <mxGeometry x="412" y="587.5" width="92" height="20" as="geometry" />
        </mxCell>
      </root>
    </mxGraphModel>
  </diagram>
  <diagram id="Uu0j5iWMD7tVdueBRBQJ" name="Page-3">
    <mxGraphModel dx="1820" dy="434" grid="0" gridSize="10" guides="1" tooltips="1" connect="1" arrows="1" fold="1" page="0" pageScale="1" pageWidth="827" pageHeight="1169" math="0" shadow="0">
      <root>
        <mxCell id="C3ddW0gihfX24KKuu1Y5-0" />
        <mxCell id="C3ddW0gihfX24KKuu1Y5-1" parent="C3ddW0gihfX24KKuu1Y5-0" />
        <mxCell id="C3ddW0gihfX24KKuu1Y5-6" value="" style="ellipse;whiteSpace=wrap;html=1;aspect=fixed;fillColor=#dae8fc;strokeColor=#6c8ebf;" vertex="1" parent="C3ddW0gihfX24KKuu1Y5-1">
          <mxGeometry x="-19" y="489" width="55" height="55" as="geometry" />
        </mxCell>
        <mxCell id="C3ddW0gihfX24KKuu1Y5-7" style="edgeStyle=orthogonalEdgeStyle;curved=1;rounded=0;orthogonalLoop=1;jettySize=auto;html=1;exitX=0.5;exitY=0;exitDx=0;exitDy=0;strokeColor=#1A1A1A;strokeWidth=2;" edge="1" parent="C3ddW0gihfX24KKuu1Y5-1" source="C3ddW0gihfX24KKuu1Y5-8" target="C3ddW0gihfX24KKuu1Y5-6">
          <mxGeometry relative="1" as="geometry" />
        </mxCell>
        <mxCell id="C3ddW0gihfX24KKuu1Y5-8" value="" style="ellipse;whiteSpace=wrap;html=1;aspect=fixed;fillColor=#f8cecc;strokeColor=#b85450;" vertex="1" parent="C3ddW0gihfX24KKuu1Y5-1">
          <mxGeometry x="-19" y="570" width="55" height="55" as="geometry" />
        </mxCell>
        <mxCell id="C3ddW0gihfX24KKuu1Y5-11" value="origin/master" style="text;html=1;strokeColor=none;fillColor=none;align=center;verticalAlign=middle;whiteSpace=wrap;rounded=0;fontColor=#FF6666;" vertex="1" parent="C3ddW0gihfX24KKuu1Y5-1">
          <mxGeometry x="-119" y="587.5" width="92" height="20" as="geometry" />
        </mxCell>
        <mxCell id="C3ddW0gihfX24KKuu1Y5-13" value="" style="shape=singleArrow;whiteSpace=wrap;html=1;fontColor=#FF6666;" vertex="1" parent="C3ddW0gihfX24KKuu1Y5-1">
          <mxGeometry x="91" y="533" width="100" height="60" as="geometry" />
        </mxCell>
        <mxCell id="C3ddW0gihfX24KKuu1Y5-14" value="git push origin HEAD:refs/for/master" style="text;html=1;strokeColor=none;fillColor=none;align=center;verticalAlign=middle;whiteSpace=wrap;rounded=0;" vertex="1" parent="C3ddW0gihfX24KKuu1Y5-1">
          <mxGeometry x="50" y="509" width="222" height="20" as="geometry" />
        </mxCell>
        <mxCell id="C3ddW0gihfX24KKuu1Y5-19" value="" style="ellipse;whiteSpace=wrap;html=1;aspect=fixed;fillColor=#dae8fc;strokeColor=#6c8ebf;" vertex="1" parent="C3ddW0gihfX24KKuu1Y5-1">
          <mxGeometry x="359" y="481" width="55" height="55" as="geometry" />
        </mxCell>
        <mxCell id="-AHn8jWvP-DFBBjyHmwN-0" style="edgeStyle=orthogonalEdgeStyle;curved=1;rounded=0;orthogonalLoop=1;jettySize=auto;html=1;exitX=0.5;exitY=0;exitDx=0;exitDy=0;entryX=0.5;entryY=1;entryDx=0;entryDy=0;dashed=1;dashPattern=1 1;strokeColor=#999999;strokeWidth=2;fontColor=#FF6666;" edge="1" parent="C3ddW0gihfX24KKuu1Y5-1" source="C3ddW0gihfX24KKuu1Y5-20" target="C3ddW0gihfX24KKuu1Y5-19">
          <mxGeometry relative="1" as="geometry" />
        </mxCell>
        <mxCell id="C3ddW0gihfX24KKuu1Y5-20" value="" style="ellipse;whiteSpace=wrap;html=1;aspect=fixed;fillColor=#f8cecc;strokeColor=#b85450;" vertex="1" parent="C3ddW0gihfX24KKuu1Y5-1">
          <mxGeometry x="278" y="574" width="55" height="55" as="geometry" />
        </mxCell>
        <mxCell id="C3ddW0gihfX24KKuu1Y5-21" value="refs/change/01/0001/1" style="text;html=1;strokeColor=none;fillColor=none;align=center;verticalAlign=middle;whiteSpace=wrap;rounded=0;fontColor=#FF6666;" vertex="1" parent="C3ddW0gihfX24KKuu1Y5-1">
          <mxGeometry x="419" y="496" width="152" height="19" as="geometry" />
        </mxCell>
        <mxCell id="C3ddW0gihfX24KKuu1Y5-24" value="origin/master" style="text;html=1;strokeColor=none;fillColor=none;align=center;verticalAlign=middle;whiteSpace=wrap;rounded=0;fontColor=#FF6666;" vertex="1" parent="C3ddW0gihfX24KKuu1Y5-1">
          <mxGeometry x="340.5" y="589" width="92" height="20" as="geometry" />
        </mxCell>
        <mxCell id="C3ddW0gihfX24KKuu1Y5-26" style="edgeStyle=orthogonalEdgeStyle;curved=1;rounded=0;orthogonalLoop=1;jettySize=auto;html=1;exitX=0.5;exitY=1;exitDx=0;exitDy=0;strokeColor=#1A1A1A;strokeWidth=2;fontColor=#FF6666;" edge="1" parent="C3ddW0gihfX24KKuu1Y5-1" source="C3ddW0gihfX24KKuu1Y5-21" target="C3ddW0gihfX24KKuu1Y5-21">
          <mxGeometry relative="1" as="geometry" />
        </mxCell>
        <mxCell id="C3ddW0gihfX24KKuu1Y5-27" value="master" style="text;html=1;strokeColor=none;fillColor=none;align=center;verticalAlign=middle;whiteSpace=wrap;rounded=0;fontColor=#FF6666;" vertex="1" parent="C3ddW0gihfX24KKuu1Y5-1">
          <mxGeometry x="-121" y="504" width="92" height="20" as="geometry" />
        </mxCell>
        <mxCell id="C3ddW0gihfX24KKuu1Y5-28" style="edgeStyle=orthogonalEdgeStyle;curved=1;rounded=0;orthogonalLoop=1;jettySize=auto;html=1;exitX=0.5;exitY=1;exitDx=0;exitDy=0;strokeColor=#1A1A1A;strokeWidth=2;fontColor=#FF6666;" edge="1" parent="C3ddW0gihfX24KKuu1Y5-1" source="C3ddW0gihfX24KKuu1Y5-24" target="C3ddW0gihfX24KKuu1Y5-24">
          <mxGeometry relative="1" as="geometry" />
        </mxCell>
        <mxCell id="-AHn8jWvP-DFBBjyHmwN-10" style="edgeStyle=orthogonalEdgeStyle;curved=1;rounded=0;orthogonalLoop=1;jettySize=auto;html=1;exitX=0.5;exitY=0;exitDx=0;exitDy=0;entryX=0.5;entryY=0;entryDx=0;entryDy=0;strokeColor=#b85450;strokeWidth=2;fontColor=#FF6666;fillColor=#f8cecc;dashed=1;dashPattern=1 4;" edge="1" parent="C3ddW0gihfX24KKuu1Y5-1" source="-AHn8jWvP-DFBBjyHmwN-1" target="-AHn8jWvP-DFBBjyHmwN-8">
          <mxGeometry relative="1" as="geometry" />
        </mxCell>
        <mxCell id="-AHn8jWvP-DFBBjyHmwN-11" value="⛔️" style="edgeLabel;html=1;align=center;verticalAlign=middle;resizable=0;points=[];fontColor=#FF6666;" vertex="1" connectable="0" parent="-AHn8jWvP-DFBBjyHmwN-10">
          <mxGeometry x="-0.1038" y="2" relative="1" as="geometry">
            <mxPoint x="1" as="offset" />
          </mxGeometry>
        </mxCell>
        <mxCell id="-AHn8jWvP-DFBBjyHmwN-1" value="" style="ellipse;whiteSpace=wrap;html=1;aspect=fixed;fillColor=#dae8fc;strokeColor=#6c8ebf;" vertex="1" parent="C3ddW0gihfX24KKuu1Y5-1">
          <mxGeometry x="788" y="439" width="55" height="55" as="geometry" />
        </mxCell>
        <mxCell id="-AHn8jWvP-DFBBjyHmwN-2" style="edgeStyle=orthogonalEdgeStyle;curved=1;rounded=0;orthogonalLoop=1;jettySize=auto;html=1;exitX=0.5;exitY=0;exitDx=0;exitDy=0;entryX=0.5;entryY=1;entryDx=0;entryDy=0;dashed=1;dashPattern=1 1;strokeColor=#999999;strokeWidth=2;fontColor=#FF6666;" edge="1" parent="C3ddW0gihfX24KKuu1Y5-1" source="-AHn8jWvP-DFBBjyHmwN-3" target="-AHn8jWvP-DFBBjyHmwN-1">
          <mxGeometry relative="1" as="geometry" />
        </mxCell>
        <mxCell id="-AHn8jWvP-DFBBjyHmwN-9" style="edgeStyle=orthogonalEdgeStyle;curved=1;rounded=0;orthogonalLoop=1;jettySize=auto;html=1;exitX=0.5;exitY=0;exitDx=0;exitDy=0;entryX=0.5;entryY=1;entryDx=0;entryDy=0;strokeWidth=2;fontColor=#FF6666;strokeColor=#1A1A1A;" edge="1" parent="C3ddW0gihfX24KKuu1Y5-1" source="-AHn8jWvP-DFBBjyHmwN-3" target="-AHn8jWvP-DFBBjyHmwN-8">
          <mxGeometry relative="1" as="geometry" />
        </mxCell>
        <mxCell id="-AHn8jWvP-DFBBjyHmwN-3" value="" style="ellipse;whiteSpace=wrap;html=1;aspect=fixed;fillColor=#f8cecc;strokeColor=#b85450;" vertex="1" parent="C3ddW0gihfX24KKuu1Y5-1">
          <mxGeometry x="607" y="615" width="55" height="55" as="geometry" />
        </mxCell>
        <mxCell id="-AHn8jWvP-DFBBjyHmwN-4" value="refs/change/01/0001/1" style="text;html=1;strokeColor=none;fillColor=none;align=center;verticalAlign=middle;whiteSpace=wrap;rounded=0;fontColor=#FF6666;" vertex="1" parent="C3ddW0gihfX24KKuu1Y5-1">
          <mxGeometry x="854" y="460" width="152" height="19" as="geometry" />
        </mxCell>
        <mxCell id="-AHn8jWvP-DFBBjyHmwN-5" value="origin/master" style="text;html=1;strokeColor=none;fillColor=none;align=center;verticalAlign=middle;whiteSpace=wrap;rounded=0;fontColor=#FF6666;" vertex="1" parent="C3ddW0gihfX24KKuu1Y5-1">
          <mxGeometry x="662" y="522" width="92" height="20" as="geometry" />
        </mxCell>
        <mxCell id="-AHn8jWvP-DFBBjyHmwN-6" style="edgeStyle=orthogonalEdgeStyle;curved=1;rounded=0;orthogonalLoop=1;jettySize=auto;html=1;exitX=0.5;exitY=1;exitDx=0;exitDy=0;strokeColor=#1A1A1A;strokeWidth=2;fontColor=#FF6666;" edge="1" parent="C3ddW0gihfX24KKuu1Y5-1" source="-AHn8jWvP-DFBBjyHmwN-4" target="-AHn8jWvP-DFBBjyHmwN-4">
          <mxGeometry relative="1" as="geometry" />
        </mxCell>
        <mxCell id="-AHn8jWvP-DFBBjyHmwN-7" style="edgeStyle=orthogonalEdgeStyle;curved=1;rounded=0;orthogonalLoop=1;jettySize=auto;html=1;exitX=0.5;exitY=1;exitDx=0;exitDy=0;strokeColor=#1A1A1A;strokeWidth=2;fontColor=#FF6666;" edge="1" parent="C3ddW0gihfX24KKuu1Y5-1" source="-AHn8jWvP-DFBBjyHmwN-5" target="-AHn8jWvP-DFBBjyHmwN-5">
          <mxGeometry relative="1" as="geometry" />
        </mxCell>
        <mxCell id="-AHn8jWvP-DFBBjyHmwN-8" value="" style="ellipse;whiteSpace=wrap;html=1;aspect=fixed;fillColor=#fff2cc;strokeColor=#d6b656;" vertex="1" parent="C3ddW0gihfX24KKuu1Y5-1">
          <mxGeometry x="607" y="507" width="55" height="55" as="geometry" />
        </mxCell>
      </root>
    </mxGraphModel>
  </diagram>
  <diagram id="gdDdX27P_wz1qYHZ8KHj" name="Page-4">
    <mxGraphModel dx="1820" dy="834" grid="0" gridSize="10" guides="1" tooltips="1" connect="1" arrows="1" fold="1" page="0" pageScale="1" pageWidth="827" pageHeight="1169" math="0" shadow="0">
      <root>
        <mxCell id="88xpXqys_B3_5jrdQgbs-0" />
        <mxCell id="88xpXqys_B3_5jrdQgbs-1" parent="88xpXqys_B3_5jrdQgbs-0" />
        <mxCell id="88xpXqys_B3_5jrdQgbs-28" style="edgeStyle=orthogonalEdgeStyle;curved=1;rounded=0;orthogonalLoop=1;jettySize=auto;html=1;exitX=0.5;exitY=0;exitDx=0;exitDy=0;strokeColor=#1A1A1A;strokeWidth=2;fontColor=#FF6666;" edge="1" parent="88xpXqys_B3_5jrdQgbs-1" source="88xpXqys_B3_5jrdQgbs-2" target="88xpXqys_B3_5jrdQgbs-27">
          <mxGeometry relative="1" as="geometry" />
        </mxCell>
        <mxCell id="88xpXqys_B3_5jrdQgbs-2" value="A" style="ellipse;whiteSpace=wrap;html=1;aspect=fixed;fillColor=#dae8fc;strokeColor=#6c8ebf;" vertex="1" parent="88xpXqys_B3_5jrdQgbs-1">
          <mxGeometry x="-19" y="489" width="55" height="55" as="geometry" />
        </mxCell>
        <mxCell id="88xpXqys_B3_5jrdQgbs-3" style="edgeStyle=orthogonalEdgeStyle;curved=1;rounded=0;orthogonalLoop=1;jettySize=auto;html=1;exitX=0.5;exitY=0;exitDx=0;exitDy=0;strokeColor=#1A1A1A;strokeWidth=2;" edge="1" parent="88xpXqys_B3_5jrdQgbs-1" source="88xpXqys_B3_5jrdQgbs-4" target="88xpXqys_B3_5jrdQgbs-2">
          <mxGeometry relative="1" as="geometry" />
        </mxCell>
        <mxCell id="88xpXqys_B3_5jrdQgbs-4" value="" style="ellipse;whiteSpace=wrap;html=1;aspect=fixed;fillColor=#f8cecc;strokeColor=#b85450;" vertex="1" parent="88xpXqys_B3_5jrdQgbs-1">
          <mxGeometry x="-19" y="570" width="55" height="55" as="geometry" />
        </mxCell>
        <mxCell id="88xpXqys_B3_5jrdQgbs-5" value="origin/master" style="text;html=1;strokeColor=none;fillColor=none;align=center;verticalAlign=middle;whiteSpace=wrap;rounded=0;fontColor=#FF6666;" vertex="1" parent="88xpXqys_B3_5jrdQgbs-1">
          <mxGeometry x="-119" y="587.5" width="92" height="20" as="geometry" />
        </mxCell>
        <mxCell id="88xpXqys_B3_5jrdQgbs-6" value="" style="shape=singleArrow;whiteSpace=wrap;html=1;fontColor=#FF6666;" vertex="1" parent="88xpXqys_B3_5jrdQgbs-1">
          <mxGeometry x="91" y="533" width="100" height="60" as="geometry" />
        </mxCell>
        <mxCell id="88xpXqys_B3_5jrdQgbs-7" value="git push origin HEAD:refs/for/master" style="text;html=1;strokeColor=none;fillColor=none;align=center;verticalAlign=middle;whiteSpace=wrap;rounded=0;" vertex="1" parent="88xpXqys_B3_5jrdQgbs-1">
          <mxGeometry x="50" y="509" width="222" height="20" as="geometry" />
        </mxCell>
        <mxCell id="88xpXqys_B3_5jrdQgbs-30" style="edgeStyle=orthogonalEdgeStyle;curved=1;rounded=0;orthogonalLoop=1;jettySize=auto;html=1;exitX=0.5;exitY=0;exitDx=0;exitDy=0;entryX=0.5;entryY=1;entryDx=0;entryDy=0;strokeWidth=2;fontColor=#FF6666;dashed=1;dashPattern=1 1;strokeColor=#999999;" edge="1" parent="88xpXqys_B3_5jrdQgbs-1" source="88xpXqys_B3_5jrdQgbs-8" target="88xpXqys_B3_5jrdQgbs-29">
          <mxGeometry relative="1" as="geometry" />
        </mxCell>
        <mxCell id="88xpXqys_B3_5jrdQgbs-8" value="A" style="ellipse;whiteSpace=wrap;html=1;aspect=fixed;fillColor=#dae8fc;strokeColor=#6c8ebf;" vertex="1" parent="88xpXqys_B3_5jrdQgbs-1">
          <mxGeometry x="359" y="481" width="55" height="55" as="geometry" />
        </mxCell>
        <mxCell id="88xpXqys_B3_5jrdQgbs-9" style="edgeStyle=orthogonalEdgeStyle;curved=1;rounded=0;orthogonalLoop=1;jettySize=auto;html=1;exitX=0.5;exitY=0;exitDx=0;exitDy=0;entryX=0.5;entryY=1;entryDx=0;entryDy=0;dashed=1;dashPattern=1 1;strokeColor=#999999;strokeWidth=2;fontColor=#FF6666;" edge="1" parent="88xpXqys_B3_5jrdQgbs-1" source="88xpXqys_B3_5jrdQgbs-10" target="88xpXqys_B3_5jrdQgbs-8">
          <mxGeometry relative="1" as="geometry" />
        </mxCell>
        <mxCell id="88xpXqys_B3_5jrdQgbs-10" value="" style="ellipse;whiteSpace=wrap;html=1;aspect=fixed;fillColor=#f8cecc;strokeColor=#b85450;" vertex="1" parent="88xpXqys_B3_5jrdQgbs-1">
          <mxGeometry x="278" y="574" width="55" height="55" as="geometry" />
        </mxCell>
        <mxCell id="88xpXqys_B3_5jrdQgbs-11" value="refs/change/01/0001/1" style="text;html=1;strokeColor=none;fillColor=none;align=center;verticalAlign=middle;whiteSpace=wrap;rounded=0;fontColor=#FF6666;" vertex="1" parent="88xpXqys_B3_5jrdQgbs-1">
          <mxGeometry x="419" y="496" width="152" height="19" as="geometry" />
        </mxCell>
        <mxCell id="88xpXqys_B3_5jrdQgbs-12" value="origin/master" style="text;html=1;strokeColor=none;fillColor=none;align=center;verticalAlign=middle;whiteSpace=wrap;rounded=0;fontColor=#FF6666;" vertex="1" parent="88xpXqys_B3_5jrdQgbs-1">
          <mxGeometry x="340.5" y="589" width="92" height="20" as="geometry" />
        </mxCell>
        <mxCell id="88xpXqys_B3_5jrdQgbs-13" style="edgeStyle=orthogonalEdgeStyle;curved=1;rounded=0;orthogonalLoop=1;jettySize=auto;html=1;exitX=0.5;exitY=1;exitDx=0;exitDy=0;strokeColor=#1A1A1A;strokeWidth=2;fontColor=#FF6666;" edge="1" parent="88xpXqys_B3_5jrdQgbs-1" source="88xpXqys_B3_5jrdQgbs-11" target="88xpXqys_B3_5jrdQgbs-11">
          <mxGeometry relative="1" as="geometry" />
        </mxCell>
        <mxCell id="88xpXqys_B3_5jrdQgbs-14" value="master" style="text;html=1;strokeColor=none;fillColor=none;align=center;verticalAlign=middle;whiteSpace=wrap;rounded=0;fontColor=#FF6666;" vertex="1" parent="88xpXqys_B3_5jrdQgbs-1">
          <mxGeometry x="-121" y="504" width="92" height="20" as="geometry" />
        </mxCell>
        <mxCell id="88xpXqys_B3_5jrdQgbs-15" style="edgeStyle=orthogonalEdgeStyle;curved=1;rounded=0;orthogonalLoop=1;jettySize=auto;html=1;exitX=0.5;exitY=1;exitDx=0;exitDy=0;strokeColor=#1A1A1A;strokeWidth=2;fontColor=#FF6666;" edge="1" parent="88xpXqys_B3_5jrdQgbs-1" source="88xpXqys_B3_5jrdQgbs-12" target="88xpXqys_B3_5jrdQgbs-12">
          <mxGeometry relative="1" as="geometry" />
        </mxCell>
        <mxCell id="88xpXqys_B3_5jrdQgbs-27" value="B" style="ellipse;whiteSpace=wrap;html=1;aspect=fixed;fillColor=#d5e8d4;strokeColor=#82b366;" vertex="1" parent="88xpXqys_B3_5jrdQgbs-1">
          <mxGeometry x="-19" y="413" width="55" height="55" as="geometry" />
        </mxCell>
        <mxCell id="88xpXqys_B3_5jrdQgbs-29" value="B" style="ellipse;whiteSpace=wrap;html=1;aspect=fixed;fillColor=#d5e8d4;strokeColor=#82b366;" vertex="1" parent="88xpXqys_B3_5jrdQgbs-1">
          <mxGeometry x="359" y="397" width="55" height="55" as="geometry" />
        </mxCell>
        <mxCell id="88xpXqys_B3_5jrdQgbs-31" value="refs/change/02/0002/1" style="text;html=1;strokeColor=none;fillColor=none;align=center;verticalAlign=middle;whiteSpace=wrap;rounded=0;fontColor=#FF6666;" vertex="1" parent="88xpXqys_B3_5jrdQgbs-1">
          <mxGeometry x="422" y="413" width="152" height="19" as="geometry" />
        </mxCell>
        <mxCell id="88xpXqys_B3_5jrdQgbs-32" style="edgeStyle=orthogonalEdgeStyle;curved=1;rounded=0;orthogonalLoop=1;jettySize=auto;html=1;exitX=0.5;exitY=0;exitDx=0;exitDy=0;entryX=0.5;entryY=1;entryDx=0;entryDy=0;strokeWidth=2;fontColor=#FF6666;dashed=1;dashPattern=1 1;strokeColor=#999999;" edge="1" parent="88xpXqys_B3_5jrdQgbs-1" source="88xpXqys_B3_5jrdQgbs-33" target="88xpXqys_B3_5jrdQgbs-40">
          <mxGeometry relative="1" as="geometry" />
        </mxCell>
        <mxCell id="88xpXqys_B3_5jrdQgbs-45" style="edgeStyle=orthogonalEdgeStyle;curved=1;rounded=0;orthogonalLoop=1;jettySize=auto;html=1;entryX=0.5;entryY=1;entryDx=0;entryDy=0;dashed=1;dashPattern=1 1;strokeColor=#999999;strokeWidth=2;fontColor=#FF6666;" edge="1" parent="88xpXqys_B3_5jrdQgbs-1" source="88xpXqys_B3_5jrdQgbs-35" target="88xpXqys_B3_5jrdQgbs-44">
          <mxGeometry relative="1" as="geometry" />
        </mxCell>
        <mxCell id="88xpXqys_B3_5jrdQgbs-33" value="A" style="ellipse;whiteSpace=wrap;html=1;aspect=fixed;fillColor=#dae8fc;strokeColor=#6c8ebf;" vertex="1" parent="88xpXqys_B3_5jrdQgbs-1">
          <mxGeometry x="754" y="487" width="55" height="55" as="geometry" />
        </mxCell>
        <mxCell id="88xpXqys_B3_5jrdQgbs-34" style="edgeStyle=orthogonalEdgeStyle;curved=1;rounded=0;orthogonalLoop=1;jettySize=auto;html=1;exitX=0.5;exitY=0;exitDx=0;exitDy=0;entryX=0.5;entryY=1;entryDx=0;entryDy=0;dashed=1;dashPattern=1 1;strokeColor=#999999;strokeWidth=2;fontColor=#FF6666;" edge="1" parent="88xpXqys_B3_5jrdQgbs-1" source="88xpXqys_B3_5jrdQgbs-35" target="88xpXqys_B3_5jrdQgbs-33">
          <mxGeometry relative="1" as="geometry" />
        </mxCell>
        <mxCell id="88xpXqys_B3_5jrdQgbs-35" value="" style="ellipse;whiteSpace=wrap;html=1;aspect=fixed;fillColor=#f8cecc;strokeColor=#b85450;" vertex="1" parent="88xpXqys_B3_5jrdQgbs-1">
          <mxGeometry x="687" y="580" width="55" height="55" as="geometry" />
        </mxCell>
        <mxCell id="88xpXqys_B3_5jrdQgbs-36" value="refs/change/01/0001/1" style="text;html=1;strokeColor=none;fillColor=none;align=center;verticalAlign=middle;whiteSpace=wrap;rounded=0;fontColor=#FF6666;" vertex="1" parent="88xpXqys_B3_5jrdQgbs-1">
          <mxGeometry x="805" y="504" width="152" height="19" as="geometry" />
        </mxCell>
        <mxCell id="88xpXqys_B3_5jrdQgbs-37" value="origin/master" style="text;html=1;strokeColor=none;fillColor=none;align=center;verticalAlign=middle;whiteSpace=wrap;rounded=0;fontColor=#FF6666;" vertex="1" parent="88xpXqys_B3_5jrdQgbs-1">
          <mxGeometry x="735.5" y="595" width="92" height="20" as="geometry" />
        </mxCell>
        <mxCell id="88xpXqys_B3_5jrdQgbs-38" style="edgeStyle=orthogonalEdgeStyle;curved=1;rounded=0;orthogonalLoop=1;jettySize=auto;html=1;exitX=0.5;exitY=1;exitDx=0;exitDy=0;strokeColor=#1A1A1A;strokeWidth=2;fontColor=#FF6666;" edge="1" parent="88xpXqys_B3_5jrdQgbs-1" source="88xpXqys_B3_5jrdQgbs-36" target="88xpXqys_B3_5jrdQgbs-36">
          <mxGeometry relative="1" as="geometry" />
        </mxCell>
        <mxCell id="88xpXqys_B3_5jrdQgbs-39" style="edgeStyle=orthogonalEdgeStyle;curved=1;rounded=0;orthogonalLoop=1;jettySize=auto;html=1;exitX=0.5;exitY=1;exitDx=0;exitDy=0;strokeColor=#1A1A1A;strokeWidth=2;fontColor=#FF6666;" edge="1" parent="88xpXqys_B3_5jrdQgbs-1" source="88xpXqys_B3_5jrdQgbs-37" target="88xpXqys_B3_5jrdQgbs-37">
          <mxGeometry relative="1" as="geometry" />
        </mxCell>
        <mxCell id="88xpXqys_B3_5jrdQgbs-40" value="B" style="ellipse;whiteSpace=wrap;html=1;aspect=fixed;fillColor=#d5e8d4;strokeColor=#82b366;" vertex="1" parent="88xpXqys_B3_5jrdQgbs-1">
          <mxGeometry x="754" y="322" width="55" height="55" as="geometry" />
        </mxCell>
        <mxCell id="88xpXqys_B3_5jrdQgbs-41" value="refs/change/02/0002/1" style="text;html=1;strokeColor=none;fillColor=none;align=center;verticalAlign=middle;whiteSpace=wrap;rounded=0;fontColor=#FF6666;" vertex="1" parent="88xpXqys_B3_5jrdQgbs-1">
          <mxGeometry x="805" y="337" width="152" height="19" as="geometry" />
        </mxCell>
        <mxCell id="88xpXqys_B3_5jrdQgbs-42" value="" style="shape=singleArrow;whiteSpace=wrap;html=1;fontColor=#FF6666;" vertex="1" parent="88xpXqys_B3_5jrdQgbs-1">
          <mxGeometry x="574" y="538" width="100" height="60" as="geometry" />
        </mxCell>
        <mxCell id="88xpXqys_B3_5jrdQgbs-43" value="重新编辑 A" style="text;html=1;strokeColor=none;fillColor=none;align=center;verticalAlign=middle;whiteSpace=wrap;rounded=0;" vertex="1" parent="88xpXqys_B3_5jrdQgbs-1">
          <mxGeometry x="511" y="509" width="222" height="20" as="geometry" />
        </mxCell>
        <mxCell id="88xpXqys_B3_5jrdQgbs-44" value="A" style="ellipse;whiteSpace=wrap;html=1;aspect=fixed;fillColor=#dae8fc;strokeColor=#6c8ebf;dashed=1;" vertex="1" parent="88xpXqys_B3_5jrdQgbs-1">
          <mxGeometry x="848" y="403" width="55" height="55" as="geometry" />
        </mxCell>
        <mxCell id="88xpXqys_B3_5jrdQgbs-46" value="&lt;b&gt;refs/change/01/0001/2&lt;/b&gt;" style="text;html=1;strokeColor=none;fillColor=none;align=center;verticalAlign=middle;whiteSpace=wrap;rounded=0;fontColor=#FF6666;" vertex="1" parent="88xpXqys_B3_5jrdQgbs-1">
          <mxGeometry x="901" y="421" width="152" height="19" as="geometry" />
        </mxCell>
        <mxCell id="88xpXqys_B3_5jrdQgbs-47" value="" style="shape=singleArrow;whiteSpace=wrap;html=1;fontColor=#FF6666;" vertex="1" parent="88xpXqys_B3_5jrdQgbs-1">
          <mxGeometry x="1073" y="527.5" width="100" height="60" as="geometry" />
        </mxCell>
        <mxCell id="88xpXqys_B3_5jrdQgbs-48" value="rebase" style="text;html=1;strokeColor=none;fillColor=none;align=center;verticalAlign=middle;whiteSpace=wrap;rounded=0;" vertex="1" parent="88xpXqys_B3_5jrdQgbs-1">
          <mxGeometry x="1010" y="498.5" width="222" height="20" as="geometry" />
        </mxCell>
        <mxCell id="88xpXqys_B3_5jrdQgbs-50" style="edgeStyle=orthogonalEdgeStyle;curved=1;rounded=0;orthogonalLoop=1;jettySize=auto;html=1;exitX=1;exitY=0.5;exitDx=0;exitDy=0;entryX=0.5;entryY=1;entryDx=0;entryDy=0;dashed=1;dashPattern=1 1;strokeColor=#999999;strokeWidth=2;fontColor=#FF6666;" edge="1" parent="88xpXqys_B3_5jrdQgbs-1" source="88xpXqys_B3_5jrdQgbs-53" target="88xpXqys_B3_5jrdQgbs-60">
          <mxGeometry relative="1" as="geometry" />
        </mxCell>
        <mxCell id="88xpXqys_B3_5jrdQgbs-51" value="A" style="ellipse;whiteSpace=wrap;html=1;aspect=fixed;fillColor=#dae8fc;strokeColor=#6c8ebf;" vertex="1" parent="88xpXqys_B3_5jrdQgbs-1">
          <mxGeometry x="1265" y="487" width="55" height="55" as="geometry" />
        </mxCell>
        <mxCell id="88xpXqys_B3_5jrdQgbs-52" style="edgeStyle=orthogonalEdgeStyle;curved=1;rounded=0;orthogonalLoop=1;jettySize=auto;html=1;exitX=0.5;exitY=0;exitDx=0;exitDy=0;entryX=0.5;entryY=1;entryDx=0;entryDy=0;dashed=1;dashPattern=1 1;strokeColor=#999999;strokeWidth=2;fontColor=#FF6666;" edge="1" parent="88xpXqys_B3_5jrdQgbs-1" source="88xpXqys_B3_5jrdQgbs-53" target="88xpXqys_B3_5jrdQgbs-51">
          <mxGeometry relative="1" as="geometry" />
        </mxCell>
        <mxCell id="88xpXqys_B3_5jrdQgbs-53" value="" style="ellipse;whiteSpace=wrap;html=1;aspect=fixed;fillColor=#f8cecc;strokeColor=#b85450;" vertex="1" parent="88xpXqys_B3_5jrdQgbs-1">
          <mxGeometry x="1198" y="580" width="55" height="55" as="geometry" />
        </mxCell>
        <mxCell id="88xpXqys_B3_5jrdQgbs-54" value="refs/change/01/0001/1" style="text;html=1;strokeColor=none;fillColor=none;align=center;verticalAlign=middle;whiteSpace=wrap;rounded=0;fontColor=#FF6666;" vertex="1" parent="88xpXqys_B3_5jrdQgbs-1">
          <mxGeometry x="1316" y="504" width="152" height="19" as="geometry" />
        </mxCell>
        <mxCell id="88xpXqys_B3_5jrdQgbs-55" value="origin/master" style="text;html=1;strokeColor=none;fillColor=none;align=center;verticalAlign=middle;whiteSpace=wrap;rounded=0;fontColor=#FF6666;" vertex="1" parent="88xpXqys_B3_5jrdQgbs-1">
          <mxGeometry x="1293" y="597.5" width="92" height="20" as="geometry" />
        </mxCell>
        <mxCell id="88xpXqys_B3_5jrdQgbs-56" style="edgeStyle=orthogonalEdgeStyle;curved=1;rounded=0;orthogonalLoop=1;jettySize=auto;html=1;exitX=0.5;exitY=1;exitDx=0;exitDy=0;strokeColor=#1A1A1A;strokeWidth=2;fontColor=#FF6666;" edge="1" parent="88xpXqys_B3_5jrdQgbs-1" source="88xpXqys_B3_5jrdQgbs-54" target="88xpXqys_B3_5jrdQgbs-54">
          <mxGeometry relative="1" as="geometry" />
        </mxCell>
        <mxCell id="88xpXqys_B3_5jrdQgbs-57" style="edgeStyle=orthogonalEdgeStyle;curved=1;rounded=0;orthogonalLoop=1;jettySize=auto;html=1;exitX=0.5;exitY=1;exitDx=0;exitDy=0;strokeColor=#1A1A1A;strokeWidth=2;fontColor=#FF6666;" edge="1" parent="88xpXqys_B3_5jrdQgbs-1" source="88xpXqys_B3_5jrdQgbs-55" target="88xpXqys_B3_5jrdQgbs-55">
          <mxGeometry relative="1" as="geometry" />
        </mxCell>
        <mxCell id="88xpXqys_B3_5jrdQgbs-58" value="B" style="ellipse;whiteSpace=wrap;html=1;aspect=fixed;fillColor=#d5e8d4;strokeColor=#82b366;" vertex="1" parent="88xpXqys_B3_5jrdQgbs-1">
          <mxGeometry x="1265" y="322" width="55" height="55" as="geometry" />
        </mxCell>
        <mxCell id="88xpXqys_B3_5jrdQgbs-59" value="refs/change/02/0002/1" style="text;html=1;strokeColor=none;fillColor=none;align=center;verticalAlign=middle;whiteSpace=wrap;rounded=0;fontColor=#FF6666;" vertex="1" parent="88xpXqys_B3_5jrdQgbs-1">
          <mxGeometry x="1316" y="337" width="152" height="19" as="geometry" />
        </mxCell>
        <mxCell id="88xpXqys_B3_5jrdQgbs-62" style="edgeStyle=orthogonalEdgeStyle;curved=1;rounded=0;orthogonalLoop=1;jettySize=auto;html=1;entryX=0.5;entryY=1;entryDx=0;entryDy=0;dashed=1;dashPattern=1 1;strokeColor=#999999;strokeWidth=2;fontColor=#FF6666;" edge="1" parent="88xpXqys_B3_5jrdQgbs-1" source="88xpXqys_B3_5jrdQgbs-51" target="88xpXqys_B3_5jrdQgbs-58">
          <mxGeometry relative="1" as="geometry" />
        </mxCell>
        <mxCell id="88xpXqys_B3_5jrdQgbs-65" style="edgeStyle=orthogonalEdgeStyle;curved=1;rounded=0;orthogonalLoop=1;jettySize=auto;html=1;exitX=0.5;exitY=0;exitDx=0;exitDy=0;dashed=1;dashPattern=1 1;strokeColor=#999999;strokeWidth=2;fontColor=#FF6666;" edge="1" parent="88xpXqys_B3_5jrdQgbs-1" source="88xpXqys_B3_5jrdQgbs-60" target="88xpXqys_B3_5jrdQgbs-63">
          <mxGeometry relative="1" as="geometry" />
        </mxCell>
        <mxCell id="88xpXqys_B3_5jrdQgbs-60" value="A" style="ellipse;whiteSpace=wrap;html=1;aspect=fixed;fillColor=#dae8fc;strokeColor=#6c8ebf;dashed=1;" vertex="1" parent="88xpXqys_B3_5jrdQgbs-1">
          <mxGeometry x="1359" y="403" width="55" height="55" as="geometry" />
        </mxCell>
        <mxCell id="88xpXqys_B3_5jrdQgbs-61" value="&lt;b&gt;refs/change/01/0001/2&lt;/b&gt;" style="text;html=1;strokeColor=none;fillColor=none;align=center;verticalAlign=middle;whiteSpace=wrap;rounded=0;fontColor=#FF6666;" vertex="1" parent="88xpXqys_B3_5jrdQgbs-1">
          <mxGeometry x="1412" y="421" width="152" height="19" as="geometry" />
        </mxCell>
        <mxCell id="88xpXqys_B3_5jrdQgbs-63" value="B" style="ellipse;whiteSpace=wrap;html=1;aspect=fixed;fillColor=#d5e8d4;strokeColor=#82b366;dashed=1;" vertex="1" parent="88xpXqys_B3_5jrdQgbs-1">
          <mxGeometry x="1358" y="252" width="55" height="55" as="geometry" />
        </mxCell>
        <mxCell id="88xpXqys_B3_5jrdQgbs-64" value="&lt;b&gt;refs/change/02/0002/2&lt;/b&gt;" style="text;html=1;strokeColor=none;fillColor=none;align=center;verticalAlign=middle;whiteSpace=wrap;rounded=0;fontColor=#FF6666;" vertex="1" parent="88xpXqys_B3_5jrdQgbs-1">
          <mxGeometry x="1434" y="270" width="152" height="19" as="geometry" />
        </mxCell>
      </root>
    </mxGraphModel>
  </diagram>
</mxfile>
